<?xml version="1.0" standalone="no"?>
<!DOCTYPE svg PUBLIC "-//W3C//DTD SVG 20010904//EN"
 "http://www.w3.org/TR/2001/REC-SVG-20010904/DTD/svg10.dtd">
<svg version="1.0" xmlns="http://www.w3.org/2000/svg"
 width="133.000000pt" height="133.000000pt" viewBox="0 0 133.000000 133.000000"
 preserveAspectRatio="xMidYMid meet">
<metadata>
Created by potrace 1.11, written by Peter Selinger 2001-2013
</metadata>
<g transform="translate(0.000000,133.000000) scale(0.100000,-0.100000)"
fill="#000000" stroke="none">
<path d="M308 1143 c7 -3 16 -2 19 1 4 3 -2 6 -13 5 -11 0 -14 -3 -6 -6z"/>
<path d="M190 1130 c0 -5 5 -10 10 -10 6 0 10 5 10 10 0 6 -4 10 -10 10 -5 0
-10 -4 -10 -10z"/>
<path d="M260 1129 c0 -7 -13 -24 -30 -38 -16 -14 -32 -39 -34 -55 -5 -29 -16
-48 -16 -28 0 7 -16 30 -36 52 l-36 40 -29 -21 c-21 -14 -29 -29 -29 -50 0
-20 -5 -29 -16 -29 -8 0 -12 -5 -8 -11 4 -8 9 -8 17 0 6 6 15 11 21 11 5 0 6
-3 3 -6 -4 -4 3 -15 14 -25 11 -10 16 -20 10 -23 -5 -4 -13 -1 -17 6 -5 8 -10
4 -15 -10 -5 -12 -14 -22 -20 -22 -8 0 -8 4 1 15 7 8 11 15 9 16 -38 7 -40 7
-33 -9 4 -9 7 -26 8 -38 1 -28 24 -54 47 -54 12 0 16 -5 13 -15 -4 -8 -11 -12
-18 -8 -6 4 -6 0 2 -9 7 -9 12 -20 11 -24 -5 -28 4 -34 51 -33 28 1 50 6 50
10 0 5 -7 9 -15 9 -13 0 -14 4 -4 23 12 22 13 22 21 -9 10 -39 40 -66 73 -66
14 0 25 -4 25 -7 0 -4 36 2 80 13 71 18 82 19 91 6 8 -11 12 -12 16 -2 2 6 12
12 20 12 14 0 14 -3 -2 -20 -16 -18 -20 -19 -35 -5 -31 28 -70 -7 -51 -43 8
-15 4 -17 -31 -17 -44 0 -69 -23 -61 -55 5 -19 20 -25 51 -21 6 1 12 -7 12
-18 0 -23 18 -32 42 -20 12 7 18 4 23 -11 9 -30 44 -25 56 7 6 16 13 23 17 17
4 -6 16 -14 26 -17 23 -9 19 -15 -17 -19 -33 -5 -67 -32 -67 -53 0 -24 -16
-17 -17 7 -4 44 -59 62 -101 32 -22 -15 -22 -15 -20 18 2 26 -1 32 -13 30 -14
-2 -15 4 -8 45 9 47 5 83 -11 83 -11 0 -34 -38 -50 -81 -11 -30 -18 -36 -41
-37 -33 -1 -34 2 -17 82 12 64 5 79 -45 91 -25 7 -27 5 -28 -26 -1 -35 -16
-94 -18 -71 -1 6 -6 12 -13 12 -7 0 -6 -6 4 -17 8 -10 14 -27 13 -38 -17 -147
-17 -185 1 -192 10 -4 19 -2 22 5 2 6 9 9 16 6 14 -5 26 35 26 87 0 31 27 53
49 40 10 -6 10 -17 1 -50 -15 -57 -15 -133 1 -162 14 -28 40 -49 51 -43 5 3 8
0 8 -6 0 -6 10 -2 21 9 l22 20 29 -24 c29 -24 31 -25 58 -8 16 9 32 28 35 42
l7 26 9 -25 c22 -58 77 -56 100 4 l13 31 3 -30 c5 -44 23 -83 39 -89 23 -9 67
41 61 69 -4 24 -4 24 30 -5 28 -25 38 -28 53 -20 12 6 20 21 20 36 0 14 4 22
10 19 15 -9 30 4 24 20 -4 8 -10 12 -15 9 -12 -7 -10 14 6 56 l13 35 2 -30 c5
-81 8 -103 20 -140 17 -56 37 -85 59 -85 32 0 48 33 50 100 l1 25 23 -29 c30
-37 54 -30 55 16 1 48 23 119 34 112 5 -4 7 -17 4 -30 -9 -32 10 -100 29 -108
40 -15 56 20 50 109 -3 45 -2 48 11 31 9 -14 11 -23 3 -32 -7 -8 -6 -14 1 -19
7 -4 26 8 46 29 19 20 35 36 37 36 13 0 -3 -50 -21 -70 -63 -67 -82 -130 -50
-159 25 -24 53 -19 90 16 28 27 38 57 42 133 2 31 9 48 27 62 l24 20 -26 -6
c-25 -5 -27 -3 -39 52 -7 31 -12 58 -11 60 1 1 -6 18 -14 38 -19 45 -19 55 -1
48 8 -3 17 -1 21 5 3 7 -2 11 -14 11 -25 0 -27 17 -5 41 15 17 15 20 0 44 -9
14 -12 25 -6 25 16 0 12 50 -5 56 -8 4 -22 1 -29 -5 -11 -9 -16 -9 -22 0 -4 8
-3 9 4 5 7 -4 12 -2 12 3 0 6 -4 11 -8 11 -5 0 -14 11 -20 25 -13 28 -52 34
-71 11 -13 -16 -5 -67 13 -78 7 -5 4 -12 -9 -22 -11 -8 -21 -19 -21 -25 -3
-25 -7 -24 -14 4 l-7 30 -12 -32 c-24 -62 -65 -50 -76 22 -7 40 -7 40 36 55
35 12 44 21 50 46 3 17 2 40 -2 51 -9 26 -62 46 -78 30 -8 -8 -11 -8 -11 1 0
17 -80 -62 -81 -80 0 -7 -2 -22 -4 -33 -7 -36 17 -105 47 -137 16 -17 27 -37
24 -44 -3 -7 -1 -16 5 -20 17 -10 22 3 10 24 -10 19 -9 20 20 12 26 -8 35 -5
56 16 29 30 42 25 19 -7 -31 -44 31 -83 70 -44 10 9 24 13 40 9 18 -5 24 -2
24 10 0 20 16 21 24 1 3 -9 0 -15 -8 -15 -7 0 -20 -7 -27 -16 -11 -13 -11 -26
2 -73 10 -38 12 -69 7 -89 -10 -36 -23 -41 -31 -12 -3 13 0 20 9 20 8 0 14 5
14 11 0 6 -7 9 -15 5 -12 -4 -15 3 -15 34 0 21 -4 41 -9 44 -14 9 -35 -23 -37
-57 -8 -119 -14 -180 -19 -185 -3 -3 -5 6 -6 19 -2 56 -9 103 -18 112 -15 15
-47 -1 -61 -31 -14 -27 -14 -27 -18 -4 -2 16 8 35 33 63 32 36 36 45 33 86 -4
57 -22 72 -66 54 -45 -19 -66 -70 -69 -166 -1 -66 -10 -154 -19 -187 -1 -5 -2
-11 -3 -15 -2 -5 -6 1 -10 12 -5 12 -4 26 3 34 8 11 8 13 0 8 -7 -4 -14 1 -17
12 -3 13 0 18 8 15 7 -3 16 0 20 6 9 15 -16 32 -30 20 -6 -5 -10 5 -11 31 0
26 4 39 13 39 7 0 13 5 13 11 0 6 -7 8 -16 5 -12 -5 -15 1 -12 32 2 30 7 38
26 40 12 2 22 8 22 14 0 6 -11 8 -25 5 l-26 -4 7 63 c5 54 4 64 -10 64 -24 0
-43 -46 -45 -108 -1 -15 -9 -26 -21 -29 -26 -7 -26 -23 1 -23 21 0 21 0 3 -27
-10 -16 -28 -62 -40 -103 -12 -41 -25 -68 -28 -60 -36 103 -34 150 10 194 31
31 35 40 32 78 -3 39 -6 43 -31 46 -38 5 -63 -19 -83 -82 -9 -28 -22 -54 -28
-58 -8 -6 -8 -8 1 -8 11 0 12 -28 4 -185 -2 -48 -24 -13 -23 38 2 88 -39 98
-84 21 -14 -24 -28 -44 -31 -44 -10 0 8 119 23 157 l16 38 23 -29 c17 -21 23
-24 28 -13 3 8 -1 24 -9 36 -15 20 -14 21 20 21 27 0 36 5 42 22 5 17 0 28
-26 49 -20 17 -39 25 -49 21 -13 -4 -14 -3 -5 9 15 19 25 49 16 48 -26 -4 -34
3 -30 26 4 18 -2 31 -23 50 -17 15 -29 35 -29 50 0 16 -6 25 -15 25 -11 0 -14
-7 -10 -27 4 -28 4 -28 -50 -28 -30 0 -55 2 -55 5 0 3 8 19 18 35 10 17 19 54
21 85 1 30 7 57 12 58 5 2 9 8 9 13 0 6 -4 8 -8 5 -4 -2 -8 7 -7 22 1 30 -23
112 -33 113 -4 0 -20 3 -35 5 -17 3 -26 1 -23 -5 4 -5 1 -13 -5 -17 -7 -4 -8
-9 -1 -13 5 -3 13 -51 16 -106 6 -81 5 -96 -5 -80 -17 27 -31 40 -51 48 -16 6
-16 10 7 43 28 41 31 71 11 99 -8 11 -12 25 -9 31 2 7 0 15 -6 19 -6 3 -11 1
-11 -6z m767 -230 c2 -34 -7 -46 -41 -55 -28 -7 -28 -6 -21 27 4 19 12 40 18
47 16 20 41 9 44 -19z m-709 -76 c-12 -68 -13 -72 -27 -86 -10 -9 -11 -6 -7
18 3 18 -1 43 -9 59 -19 36 -19 36 4 36 11 0 23 5 26 10 15 24 21 6 13 -37z
m419 -278 c-32 -68 -52 -28 -21 43 16 36 16 36 27 14 8 -17 7 -31 -6 -57z
m296 32 c0 -32 -26 -83 -38 -77 -12 6 -8 54 7 93 13 32 31 23 31 -16z m-737
-62 c-3 -8 0 -15 6 -17 8 -3 8 -10 -1 -25 -6 -12 -11 -44 -11 -70 0 -28 -6
-58 -15 -69 -8 -10 -15 -14 -15 -9 -1 6 -3 19 -5 30 -4 18 7 100 21 163 2 13
9 20 15 16 6 -3 8 -12 5 -19z m110 -48 c-1 -16 -8 -23 -28 -25 -23 -3 -27 0
-21 15 19 53 52 60 49 10z m28 -59 c-4 -24 -9 -45 -13 -48 -4 -3 -15 -18 -25
-34 l-19 -30 -18 23 c-35 42 -22 101 21 101 15 0 33 7 40 15 18 22 20 19 14
-27z m800 -71 c-1 -12 -3 -34 -3 -49 -1 -38 -37 -74 -57 -57 -20 16 -17 46 8
88 40 64 58 71 52 18z"/>
<path d="M290 829 c0 -5 5 -7 10 -4 6 3 10 8 10 11 0 2 -4 4 -10 4 -5 0 -10
-5 -10 -11z"/>
<path d="M365 370 c-3 -5 1 -10 9 -10 9 0 16 5 16 10 0 6 -4 10 -9 10 -6 0
-13 -4 -16 -10z"/>
<path d="M374 1129 c-5 -9 2 -13 19 -10 4 0 7 -5 7 -11 0 -37 24 -89 54 -120
l34 -35 25 21 c32 27 41 63 17 71 -10 3 -20 19 -24 35 -3 18 -12 30 -21 30
-19 0 -19 -7 0 -27 8 -8 13 -19 10 -24 -4 -5 -2 -9 4 -9 6 0 8 -7 5 -15 -6
-15 -25 -21 -23 -7 4 23 -4 43 -28 69 -29 32 -69 48 -79 32z"/>
<path d="M134 1119 c-8 -14 18 -31 30 -19 9 9 0 30 -14 30 -5 0 -12 -5 -16
-11z"/>
<path d="M525 1090 c3 -5 11 -10 16 -10 6 0 7 5 4 10 -3 6 -11 10 -16 10 -6 0
-7 -4 -4 -10z"/>
<path d="M573 1092 c-13 -8 -16 -25 -13 -67 1 -18 4 -23 7 -12 3 10 14 17 29
17 20 0 24 5 24 29 0 17 -6 31 -16 35 -19 7 -16 7 -31 -2z"/>
<path d="M170 1074 c0 -8 5 -12 10 -9 6 4 8 11 5 16 -9 14 -15 11 -15 -7z"/>
<path d="M780 1045 c-6 -8 -9 -18 -6 -24 3 -5 -2 -7 -12 -4 -10 2 -24 -3 -31
-11 -11 -13 -9 -17 11 -27 14 -6 25 -17 25 -25 0 -20 -10 -17 -25 6 -7 11 -19
20 -27 20 -8 0 -15 6 -15 14 0 21 -17 29 -37 17 -16 -10 -16 -11 5 -17 16 -5
20 -10 12 -18 -18 -22 56 -234 93 -264 20 -17 38 6 42 52 6 66 35 143 70 189
25 32 31 47 21 47 -8 0 -27 -15 -41 -34 -30 -39 -67 -130 -58 -140 4 -3 2 -6
-4 -6 -5 0 -14 20 -20 44 -9 39 -8 43 9 38 11 -2 20 2 23 12 7 22 13 35 35 76
13 25 15 39 8 48 -8 9 -14 9 -24 1 -11 -9 -15 -7 -20 5 -8 20 -18 20 -34 1z"/>
<path d="M887 1053 c-11 -10 -8 -20 7 -26 10 -4 12 0 9 14 -6 21 -7 22 -16 12z"/>
<path d="M933 1048 c-17 -22 0 -61 30 -69 22 -6 33 -3 48 12 10 10 19 25 19
33 0 21 -27 27 -44 11 -13 -13 -15 -13 -21 5 -7 23 -18 26 -32 8z"/>
<path d="M660 1040 c0 -5 5 -10 10 -10 6 0 10 5 10 10 0 6 -4 10 -10 10 -5 0
-10 -4 -10 -10z"/>
<path d="M740 1039 c0 -5 5 -7 10 -4 6 3 10 8 10 11 0 2 -4 4 -10 4 -5 0 -10
-5 -10 -11z"/>
<path d="M1050 1020 c0 -5 7 -10 16 -10 8 0 12 5 9 10 -3 6 -10 10 -16 10 -5
0 -9 -4 -9 -10z"/>
<path d="M625 1000 c3 -5 8 -10 11 -10 2 0 4 5 4 10 0 6 -5 10 -11 10 -5 0 -7
-4 -4 -10z"/>
<path d="M567 976 c-8 -8 -18 -12 -22 -8 -5 4 -5 2 -1 -5 3 -6 8 -63 11 -125
2 -62 5 -118 6 -125 4 -20 29 -24 57 -10 30 14 30 16 17 132 -4 39 -8 83 -9
99 -1 38 -37 64 -59 42z"/>
<path d="M1050 976 c0 -15 24 -28 34 -19 13 14 5 33 -14 33 -11 0 -20 -6 -20
-14z"/>
<path d="M1116 981 c-4 -7 -5 -15 -2 -18 9 -9 19 4 14 18 -4 11 -6 11 -12 0z"/>
<path d="M445 960 c3 -5 8 -10 11 -10 2 0 4 5 4 10 0 6 -5 10 -11 10 -5 0 -7
-4 -4 -10z"/>
<path d="M435 929 c-4 -6 -5 -13 -2 -16 7 -7 27 6 27 18 0 12 -17 12 -25 -2z"/>
<path d="M490 920 c0 -5 5 -10 10 -10 6 0 10 5 10 10 0 6 -4 10 -10 10 -5 0
-10 -4 -10 -10z"/>
<path d="M1090 909 c0 -5 5 -7 10 -4 6 3 10 8 10 11 0 2 -4 4 -10 4 -5 0 -10
-5 -10 -11z"/>
<path d="M470 874 c0 -8 5 -12 10 -9 6 3 10 10 10 16 0 5 -4 9 -10 9 -5 0 -10
-7 -10 -16z"/>
<path d="M1190 880 c-12 -7 -12 -12 -2 -22 9 -9 15 -9 24 0 16 16 -2 34 -22
22z"/>
<path d="M650 865 c0 -17 2 -18 24 -9 23 9 20 24 -4 24 -11 0 -20 -7 -20 -15z"/>
<path d="M15 821 c-3 -5 -1 -12 5 -16 12 -7 30 2 30 16 0 12 -27 12 -35 0z"/>
<path d="M1045 811 c-6 -11 9 -23 19 -14 9 9 7 23 -3 23 -6 0 -12 -4 -16 -9z"/>
<path d="M390 800 c0 -5 7 -10 15 -10 8 0 15 5 15 10 0 6 -7 10 -15 10 -8 0
-15 -4 -15 -10z"/>
<path d="M520 800 c0 -5 5 -10 11 -10 5 0 7 5 4 10 -3 6 -8 10 -11 10 -2 0 -4
-4 -4 -10z"/>
<path d="M836 794 c-10 -25 -7 -34 9 -34 8 0 15 9 15 19 0 26 -16 35 -24 15z"/>
<path d="M50 781 c0 -5 5 -13 10 -16 6 -3 10 -2 10 4 0 5 -4 13 -10 16 -5 3
-10 2 -10 -4z"/>
<path d="M676 754 c-16 -15 -13 -39 3 -29 9 5 22 45 16 45 -2 0 -11 -7 -19
-16z"/>
<path d="M47 716 c-3 -8 -2 -18 3 -21 13 -8 24 15 12 27 -6 6 -11 4 -15 -6z"/>
<path d="M704 715 c-4 -10 -16 -14 -33 -13 -21 3 -25 -1 -23 -17 10 -55 83
-42 98 18 5 23 3 27 -15 27 -12 0 -24 -7 -27 -15z"/>
<path d="M826 711 c-4 -5 -2 -12 3 -15 5 -4 12 -2 15 3 4 5 2 12 -3 15 -5 4
-12 2 -15 -3z"/>
<path d="M880 710 c0 -5 5 -10 11 -10 5 0 7 5 4 10 -3 6 -8 10 -11 10 -2 0 -4
-4 -4 -10z"/>
<path d="M222 699 c2 -7 10 -15 17 -17 8 -3 12 1 9 9 -2 7 -10 15 -17 17 -8 3
-12 -1 -9 -9z"/>
<path d="M325 700 c4 -6 11 -8 16 -5 14 9 11 15 -7 15 -8 0 -12 -5 -9 -10z"/>
<path d="M620 668 c0 -24 12 -58 20 -58 4 0 11 7 14 16 3 8 2 13 -3 10 -11 -7
-23 22 -15 35 3 5 0 9 -5 9 -6 0 -11 -6 -11 -12z"/>
<path d="M195 660 c-4 -6 -2 -17 4 -23 15 -15 25 -2 13 19 -7 12 -11 13 -17 4z"/>
<path d="M580 651 c0 -6 5 -13 10 -16 6 -3 10 1 10 9 0 9 -4 16 -10 16 -5 0
-10 -4 -10 -9z"/>
<path d="M890 615 c0 -8 4 -15 9 -15 5 0 11 7 15 15 3 9 0 15 -9 15 -8 0 -15
-7 -15 -15z"/>
<path d="M1095 590 c3 -5 8 -10 11 -10 2 0 4 5 4 10 0 6 -5 10 -11 10 -5 0 -7
-4 -4 -10z"/>
<path d="M1065 510 c3 -5 10 -10 16 -10 5 0 9 5 9 10 0 6 -7 10 -16 10 -8 0
-12 -4 -9 -10z"/>
<path d="M160 480 c0 -5 5 -10 11 -10 5 0 7 5 4 10 -3 6 -8 10 -11 10 -2 0 -4
-4 -4 -10z"/>
<path d="M597 463 c-13 -12 -7 -23 13 -23 13 0 18 5 14 15 -7 16 -17 19 -27 8z"/>
<path d="M520 430 c0 -5 7 -10 15 -10 8 0 15 5 15 10 0 6 -7 10 -15 10 -8 0
-15 -4 -15 -10z"/>
<path d="M110 385 c0 -8 5 -15 10 -15 6 0 10 7 10 15 0 8 -4 15 -10 15 -5 0
-10 -7 -10 -15z"/>
<path d="M165 340 c3 -5 8 -10 11 -10 2 0 4 5 4 10 0 6 -5 10 -11 10 -5 0 -7
-4 -4 -10z"/>
<path d="M1025 320 c-3 -5 -1 -10 4 -10 6 0 11 5 11 10 0 6 -2 10 -4 10 -3 0
-8 -4 -11 -10z"/>
<path d="M785 300 c4 -6 11 -8 16 -5 14 9 11 15 -7 15 -8 0 -12 -5 -9 -10z"/>
<path d="M290 284 c0 -17 22 -14 28 4 2 7 -3 12 -12 12 -9 0 -16 -7 -16 -16z"/>
<path d="M420 285 c0 -8 7 -15 15 -15 8 0 15 7 15 15 0 8 -7 15 -15 15 -8 0
-15 -7 -15 -15z"/>
<path d="M664 287 c-4 -10 -2 -23 3 -28 14 -14 24 13 13 32 -7 11 -10 10 -16
-4z"/>
<path d="M395 260 c-3 -5 -1 -10 4 -10 6 0 11 5 11 10 0 6 -2 10 -4 10 -3 0
-8 -4 -11 -10z"/>
<path d="M510 260 c0 -5 5 -10 10 -10 6 0 10 5 10 10 0 6 -4 10 -10 10 -5 0
-10 -4 -10 -10z"/>
</g>
</svg>
